<?xml version="1.0" standalone="no"?>
<!DOCTYPE svg PUBLIC "-//W3C//DTD SVG 20010904//EN"
 "http://www.w3.org/TR/2001/REC-SVG-20010904/DTD/svg10.dtd">
<svg version="1.0" xmlns="http://www.w3.org/2000/svg"
 width="5000.000000pt" height="5000.000000pt" viewBox="0 0 5000.000000 5000.000000"
 preserveAspectRatio="xMidYMid meet">

<g transform="translate(0.000000,5000.000000) scale(0.100000,-0.100000)"
fill="#000000" stroke="none">
<path d="M15800 39140 c-261 -12 -456 -35 -715 -85 -254 -49 -516 -121 -650
-180 -16 -8 -64 -28 -105 -45 -182 -76 -421 -216 -560 -327 -193 -156 -353
-378 -480 -666 -64 -145 -152 -467 -175 -637 -3 -25 -10 -72 -15 -105 -41
-256 -40 106 -40 -10278 0 -10658 -3 -10012 50 -10372 93 -636 299 -1089 659
-1445 246 -244 510 -407 816 -503 424 -134 986 -140 1420 -15 591 170 1066
592 1314 1168 161 372 241 779 261 1323 6 172 10 3329 11 8632 0 5632 4 8352
10 8335 6 -14 109 -416 229 -895 120 -478 309 -1230 420 -1670 231 -920 540
-2147 840 -3340 301 -1197 608 -2417 849 -3377 116 -461 305 -1213 420 -1670
115 -458 304 -1209 420 -1668 115 -459 313 -1247 440 -1750 126 -503 244 -969
261 -1035 18 -66 40 -151 50 -190 10 -38 33 -124 50 -190 17 -66 40 -151 50
-190 10 -38 30 -115 45 -170 15 -55 35 -131 45 -170 10 -38 28 -106 40 -150
12 -44 25 -89 27 -100 52 -210 176 -637 225 -775 121 -342 286 -700 433 -945
132 -219 360 -484 556 -647 551 -456 1111 -637 1907 -614 678 19 1197 184
1602 509 198 159 482 468 631 687 93 136 203 333 259 465 12 28 28 64 36 82 8
17 14 37 14 45 0 8 4 18 8 23 9 11 56 151 117 350 20 66 40 131 45 145 5 14
18 57 29 95 11 39 33 115 49 170 17 55 46 161 67 235 20 74 41 149 46 165 8
27 99 370 112 420 2 11 15 56 27 100 23 85 103 392 125 485 8 30 23 89 34 130
23 85 298 1173 312 1235 5 22 13 56 19 75 5 19 27 107 49 195 22 88 134 536
250 995 115 459 309 1231 431 1715 378 1502 547 2174 590 2340 23 88 145 572
271 1075 127 503 320 1271 429 1705 109 435 295 1175 414 1645 274 1091 579
2304 852 3390 119 470 227 900 240 955 14 55 28 107 32 115 4 8 9 -3844 12
-8560 5 -8062 7 -8584 23 -8720 95 -795 305 -1287 719 -1686 207 -199 421
-338 673 -439 388 -154 929 -186 1405 -83 485 106 920 388 1206 783 169 234
294 510 375 830 36 140 47 189 53 235 4 25 11 65 16 90 18 83 41 314 50 500
12 244 12 19578 0 19835 -36 764 -239 1328 -608 1693 -224 220 -622 429 -1051
551 -193 55 -289 76 -561 121 -30 5 -152 20 -270 32 -209 21 -251 22 -1415 22
-1188 1 -1266 -1 -1650 -34 -131 -12 -318 -34 -405 -50 -144 -25 -233 -43
-329 -67 -560 -136 -945 -438 -1194 -939 -130 -261 -314 -769 -462 -1279 -40
-137 -132 -461 -155 -545 -12 -41 -27 -97 -35 -125 -7 -27 -35 -131 -60 -230
-26 -99 -53 -202 -61 -230 -8 -27 -30 -111 -49 -185 -20 -74 -42 -157 -49
-185 -8 -27 -36 -131 -61 -230 -26 -99 -53 -202 -61 -230 -8 -27 -30 -111 -49
-185 -20 -74 -42 -157 -49 -185 -8 -27 -42 -156 -76 -285 -91 -345 -158 -598
-174 -655 -8 -27 -35 -131 -61 -230 -43 -165 -124 -471 -160 -605 -36 -134
-117 -440 -160 -605 -26 -99 -53 -202 -61 -230 -17 -63 -97 -363 -159 -600
-26 -99 -53 -202 -61 -230 -8 -27 -36 -135 -64 -240 -28 -104 -56 -212 -64
-240 -8 -27 -35 -131 -61 -230 -25 -99 -53 -202 -61 -230 -7 -27 -29 -111 -49
-185 -19 -74 -41 -157 -49 -185 -8 -27 -35 -131 -61 -230 -50 -192 -136 -514
-160 -605 -8 -30 -38 -140 -65 -245 -28 -104 -55 -206 -60 -225 -5 -19 -26
-96 -45 -170 -34 -132 -53 -203 -81 -305 -8 -27 -30 -111 -49 -185 -20 -74
-40 -151 -45 -170 -5 -19 -26 -96 -45 -170 -40 -154 -61 -234 -81 -305 -7 -27
-29 -111 -49 -185 -19 -74 -41 -157 -49 -185 -8 -27 -35 -131 -61 -230 -26
-99 -53 -202 -61 -230 -7 -27 -29 -111 -49 -185 -20 -74 -42 -157 -49 -185 -8
-27 -35 -131 -61 -230 -26 -99 -53 -202 -61 -230 -7 -27 -29 -111 -49 -185
-19 -74 -42 -160 -50 -190 -8 -30 -38 -140 -65 -245 -28 -104 -55 -206 -60
-225 -5 -19 -26 -96 -45 -170 -34 -132 -53 -203 -81 -305 -8 -27 -30 -111 -49
-185 -20 -74 -40 -151 -45 -170 -5 -19 -32 -120 -60 -225 -27 -104 -57 -215
-65 -245 -8 -30 -31 -116 -50 -190 -20 -74 -42 -157 -49 -185 -8 -27 -28 -104
-45 -170 -18 -66 -37 -131 -42 -145 -11 -24 -12 -22 -29 35 -22 77 -42 151
-81 300 -17 66 -37 143 -45 170 -7 28 -29 111 -49 185 -35 133 -54 206 -81
305 -8 28 -30 111 -49 185 -20 74 -40 151 -45 170 -5 19 -32 121 -60 225 -27
105 -57 215 -65 245 -8 30 -31 116 -50 190 -20 74 -42 158 -49 185 -8 28 -36
131 -61 230 -26 99 -53 203 -61 230 -8 28 -30 111 -49 185 -20 74 -42 158 -49
185 -8 28 -35 131 -61 230 -26 99 -53 203 -61 230 -7 28 -29 111 -49 185 -20
74 -42 158 -49 185 -8 28 -21 77 -30 110 -8 33 -34 128 -57 210 -22 83 -52
193 -66 245 -13 52 -34 129 -45 170 -11 41 -28 107 -38 145 -10 39 -33 124
-50 190 -18 66 -38 143 -45 170 -7 28 -25 95 -40 150 -40 149 -65 242 -85 320
-47 178 -70 266 -90 340 -12 44 -33 123 -47 175 -13 52 -34 129 -45 170 -11
41 -26 98 -33 125 -7 28 -24 93 -38 145 -15 52 -37 138 -51 190 -23 92 -56
214 -98 370 -11 41 -26 98 -33 125 -7 28 -27 104 -45 170 -17 66 -40 152 -50
190 -30 115 -70 265 -92 345 -11 41 -26 98 -33 125 -12 46 -45 170 -97 365
-11 41 -28 107 -38 145 -50 191 -70 267 -90 340 -12 44 -28 103 -35 130 -7 28
-27 102 -43 165 -17 63 -45 167 -61 230 -29 109 -70 261 -111 415 -31 117 -81
307 -95 360 -7 28 -25 94 -39 148 -14 53 -38 141 -52 195 -14 53 -32 120 -39
147 -7 28 -27 104 -45 170 -18 66 -38 143 -45 170 -7 28 -24 93 -38 145 -25
92 -65 241 -92 345 -7 28 -27 104 -45 170 -18 66 -38 143 -45 170 -12 48 -56
212 -117 440 -16 61 -43 162 -60 225 -16 63 -39 149 -50 190 -11 41 -26 98
-33 125 -7 28 -27 104 -45 170 -51 191 -57 214 -88 335 -17 63 -40 151 -52
195 -12 44 -26 94 -30 110 -4 17 -24 89 -45 160 -20 72 -43 153 -50 180 -7 28
-18 64 -23 80 -5 17 -18 57 -27 90 -66 235 -279 878 -314 950 -6 11 -27 63
-47 115 -53 140 -165 363 -229 460 -201 300 -440 497 -770 635 -93 38 -308
102 -425 124 -271 53 -454 77 -790 102 -237 18 -381 20 -1375 24 -610 2 -1184
0 -1275 -5z"/>
</g>
</svg>
